<svg width="40" height="39" viewBox="0 0 40 39" fill="none" xmlns="http://www.w3.org/2000/svg">
<path fill-rule="evenodd" clip-rule="evenodd" d="M10.9083 5.91318C10.8534 2.9284 8.38917 0.553309 5.40439 0.608262C2.41961 0.663216 0.04452 3.1274 0.0994731 6.11218C0.154426 9.09696 2.61862 11.4721 5.60339 11.4171C8.58817 11.3621 10.9633 8.89796 10.9083 5.91318Z" fill="#003355"/>
<path fill-rule="evenodd" clip-rule="evenodd" d="M24.482 5.66367C24.427 2.6789 21.9629 0.303802 18.9782 0.358754C15.9935 0.413705 13.6185 2.87789 13.6734 5.86267C13.7284 8.84745 16.1925 11.2225 19.1772 11.1676C22.1619 11.1126 24.5369 8.64845 24.482 5.66367Z" fill="#003355"/>
<path fill-rule="evenodd" clip-rule="evenodd" d="M38.5588 5.40439C38.5039 2.41961 36.0397 0.0445202 33.0549 0.0994734C30.0701 0.154427 27.695 2.61862 27.75 5.60339C27.8049 8.58817 30.2691 10.9633 33.2539 10.9083C36.2387 10.8534 38.6138 8.38917 38.5588 5.40439Z" fill="#003355"/>
<path fill-rule="evenodd" clip-rule="evenodd" d="M24.741 19.74C24.686 16.7554 22.2219 14.3803 19.2372 14.4353C16.2526 14.4902 13.8775 16.9544 13.9325 19.939C13.9874 22.9237 16.4515 25.2987 19.4362 25.2438C22.4209 25.1888 24.7959 22.7247 24.741 19.74Z" fill="#003355"/>
<path fill-rule="evenodd" clip-rule="evenodd" d="M38.818 19.2278C38.763 16.2431 36.2988 13.8681 33.3141 13.9231C30.3293 13.978 27.9542 16.4421 28.0091 19.4268C28.0641 22.4115 30.5283 24.7865 33.5131 24.7316C36.4978 24.6766 38.8729 22.2125 38.818 19.2278Z" fill="#003355"/>
<path fill-rule="evenodd" clip-rule="evenodd" d="M39.068 33.0553C39.013 30.0705 36.5488 27.6954 33.5641 27.7504C30.5793 27.8053 28.2042 30.2695 28.2591 33.2543C28.3141 36.2391 30.7783 38.6142 33.7631 38.5592C36.7478 38.5043 39.1229 36.0401 39.068 33.0553Z" fill="#003355"/>
</svg>
